<mxfile host="app.diagrams.net" modified="2022-06-26T08:16:54.151Z" agent="5.0 (Macintosh; Intel Mac OS X 10_15_7) AppleWebKit/537.36 (KHTML, like Gecko) Chrome/102.0.0.0 Safari/537.36" etag="3BJqR7YvBcf-t3I9Ekbz" version="20.0.3" type="github">
  <diagram id="K4vAkyuHzr__zoMk4vQg" name="Page-1">
    <mxGraphModel dx="2066" dy="2217" grid="1" gridSize="10" guides="1" tooltips="1" connect="1" arrows="1" fold="1" page="1" pageScale="1" pageWidth="827" pageHeight="1169" math="0" shadow="0">
      <root>
        <mxCell id="0" />
        <mxCell id="1" parent="0" />
        <mxCell id="HxmhVXZMZb9d3OeHC13k-1" value="&lt;font style=&quot;font-size: 24px;&quot;&gt;操作系统（Windows、Linux、Mac OS）&lt;/font&gt;" style="rounded=0;whiteSpace=wrap;html=1;" parent="1" vertex="1">
          <mxGeometry x="140" y="200" width="600" height="70" as="geometry" />
        </mxCell>
        <mxCell id="HxmhVXZMZb9d3OeHC13k-2" value="JRE -- JVM" style="rounded=0;whiteSpace=wrap;html=1;fontSize=24;" parent="1" vertex="1">
          <mxGeometry x="140" y="90" width="460" height="70" as="geometry" />
        </mxCell>
        <mxCell id="HxmhVXZMZb9d3OeHC13k-3" value="程序A" style="ellipse;whiteSpace=wrap;html=1;aspect=fixed;fontSize=24;" parent="1" vertex="1">
          <mxGeometry x="140" y="-30" width="80" height="80" as="geometry" />
        </mxCell>
        <mxCell id="HxmhVXZMZb9d3OeHC13k-4" value="程序B" style="ellipse;whiteSpace=wrap;html=1;aspect=fixed;fontSize=24;" parent="1" vertex="1">
          <mxGeometry x="260" y="-30" width="80" height="80" as="geometry" />
        </mxCell>
        <mxCell id="HxmhVXZMZb9d3OeHC13k-5" value="程序C" style="ellipse;whiteSpace=wrap;html=1;aspect=fixed;fontSize=24;" parent="1" vertex="1">
          <mxGeometry x="390" y="-30" width="80" height="80" as="geometry" />
        </mxCell>
        <mxCell id="HxmhVXZMZb9d3OeHC13k-6" value="程序D" style="ellipse;whiteSpace=wrap;html=1;aspect=fixed;fontSize=24;" parent="1" vertex="1">
          <mxGeometry x="520" y="-30" width="80" height="80" as="geometry" />
        </mxCell>
        <mxCell id="HxmhVXZMZb9d3OeHC13k-7" value="程序E" style="ellipse;whiteSpace=wrap;html=1;aspect=fixed;fontSize=24;" parent="1" vertex="1">
          <mxGeometry x="660" y="80" width="80" height="80" as="geometry" />
        </mxCell>
        <mxCell id="HxmhVXZMZb9d3OeHC13k-8" value="&lt;font style=&quot;font-size: 24px;&quot;&gt;硬件体系&lt;/font&gt;" style="rounded=0;whiteSpace=wrap;html=1;" parent="1" vertex="1">
          <mxGeometry x="140" y="320" width="600" height="70" as="geometry" />
        </mxCell>
        <mxCell id="HxmhVXZMZb9d3OeHC13k-11" style="edgeStyle=orthogonalEdgeStyle;rounded=0;orthogonalLoop=1;jettySize=auto;html=1;exitX=1;exitY=0.5;exitDx=0;exitDy=0;entryX=0;entryY=0.5;entryDx=0;entryDy=0;entryPerimeter=0;fontSize=24;" parent="1" source="HxmhVXZMZb9d3OeHC13k-9" target="HxmhVXZMZb9d3OeHC13k-10" edge="1">
          <mxGeometry relative="1" as="geometry" />
        </mxCell>
        <mxCell id="HxmhVXZMZb9d3OeHC13k-9" value=".java" style="text;html=1;strokeColor=none;fillColor=none;align=center;verticalAlign=middle;whiteSpace=wrap;rounded=0;fontSize=24;" parent="1" vertex="1">
          <mxGeometry x="980" y="-5" width="60" height="30" as="geometry" />
        </mxCell>
        <mxCell id="HxmhVXZMZb9d3OeHC13k-14" value="" style="edgeStyle=orthogonalEdgeStyle;rounded=0;orthogonalLoop=1;jettySize=auto;html=1;fontSize=18;jumpSize=6;sketch=0;" parent="1" source="HxmhVXZMZb9d3OeHC13k-10" edge="1">
          <mxGeometry relative="1" as="geometry">
            <mxPoint x="1330" y="10" as="targetPoint" />
          </mxGeometry>
        </mxCell>
        <mxCell id="HxmhVXZMZb9d3OeHC13k-10" value="&lt;font style=&quot;font-size: 18px;&quot;&gt;class file&lt;/font&gt;" style="shape=note;whiteSpace=wrap;html=1;backgroundOutline=1;darkOpacity=0.05;fontSize=24;" parent="1" vertex="1">
          <mxGeometry x="1141" y="-40" width="100" height="100" as="geometry" />
        </mxCell>
        <mxCell id="HxmhVXZMZb9d3OeHC13k-32" style="edgeStyle=orthogonalEdgeStyle;rounded=0;sketch=0;jumpSize=6;orthogonalLoop=1;jettySize=auto;html=1;exitX=0.25;exitY=1;exitDx=0;exitDy=0;entryX=0.721;entryY=-0.022;entryDx=0;entryDy=0;entryPerimeter=0;fontSize=18;" parent="1" source="HxmhVXZMZb9d3OeHC13k-15" target="HxmhVXZMZb9d3OeHC13k-24" edge="1">
          <mxGeometry relative="1" as="geometry" />
        </mxCell>
        <mxCell id="HxmhVXZMZb9d3OeHC13k-33" style="edgeStyle=orthogonalEdgeStyle;rounded=0;sketch=0;jumpSize=6;orthogonalLoop=1;jettySize=auto;html=1;exitX=0.75;exitY=1;exitDx=0;exitDy=0;entryX=0.25;entryY=0;entryDx=0;entryDy=0;fontSize=18;" parent="1" source="HxmhVXZMZb9d3OeHC13k-15" target="HxmhVXZMZb9d3OeHC13k-23" edge="1">
          <mxGeometry relative="1" as="geometry" />
        </mxCell>
        <mxCell id="HxmhVXZMZb9d3OeHC13k-40" style="edgeStyle=orthogonalEdgeStyle;rounded=0;sketch=0;jumpSize=6;orthogonalLoop=1;jettySize=auto;html=1;exitX=0.75;exitY=0;exitDx=0;exitDy=0;fontSize=18;" parent="1" source="HxmhVXZMZb9d3OeHC13k-15" edge="1">
          <mxGeometry relative="1" as="geometry">
            <mxPoint x="1438" y="60" as="targetPoint" />
          </mxGeometry>
        </mxCell>
        <mxCell id="HxmhVXZMZb9d3OeHC13k-15" value="" style="rounded=0;whiteSpace=wrap;html=1;fontSize=18;" parent="1" vertex="1">
          <mxGeometry x="920" y="105" width="690" height="375" as="geometry" />
        </mxCell>
        <mxCell id="HxmhVXZMZb9d3OeHC13k-17" value="运行时数据区&lt;br&gt;（Runtime Data Area）" style="text;html=1;strokeColor=none;fillColor=none;align=center;verticalAlign=middle;whiteSpace=wrap;rounded=0;fontSize=18;" parent="1" vertex="1">
          <mxGeometry x="1050.5" y="120" width="409" height="50" as="geometry" />
        </mxCell>
        <mxCell id="HxmhVXZMZb9d3OeHC13k-18" value="方法区&lt;br&gt;（Method Area）" style="rounded=0;whiteSpace=wrap;html=1;fontSize=18;" parent="1" vertex="1">
          <mxGeometry x="970" y="210" width="160" height="80" as="geometry" />
        </mxCell>
        <mxCell id="HxmhVXZMZb9d3OeHC13k-19" value="Java 栈&lt;br&gt;Stack" style="rounded=0;whiteSpace=wrap;html=1;fontSize=18;" parent="1" vertex="1">
          <mxGeometry x="1170" y="210" width="160" height="80" as="geometry" />
        </mxCell>
        <mxCell id="HxmhVXZMZb9d3OeHC13k-20" value="本地方法栈&lt;br&gt;Native Method Stack" style="rounded=0;whiteSpace=wrap;html=1;fontSize=18;" parent="1" vertex="1">
          <mxGeometry x="1380" y="210" width="180" height="80" as="geometry" />
        </mxCell>
        <mxCell id="HxmhVXZMZb9d3OeHC13k-21" value="堆&lt;br&gt;Heap" style="rounded=0;whiteSpace=wrap;html=1;fontSize=18;" parent="1" vertex="1">
          <mxGeometry x="970" y="360" width="160" height="80" as="geometry" />
        </mxCell>
        <mxCell id="HxmhVXZMZb9d3OeHC13k-22" value="程序计数器" style="rounded=0;whiteSpace=wrap;html=1;fontSize=18;" parent="1" vertex="1">
          <mxGeometry x="1170" y="360" width="370" height="80" as="geometry" />
        </mxCell>
        <mxCell id="HxmhVXZMZb9d3OeHC13k-34" style="edgeStyle=orthogonalEdgeStyle;rounded=0;sketch=0;jumpSize=6;orthogonalLoop=1;jettySize=auto;html=1;exitX=0.75;exitY=0;exitDx=0;exitDy=0;entryX=0.916;entryY=1.003;entryDx=0;entryDy=0;entryPerimeter=0;fontSize=18;" parent="1" source="HxmhVXZMZb9d3OeHC13k-23" target="HxmhVXZMZb9d3OeHC13k-15" edge="1">
          <mxGeometry relative="1" as="geometry" />
        </mxCell>
        <mxCell id="HxmhVXZMZb9d3OeHC13k-23" value="本地方法接口" style="rounded=0;whiteSpace=wrap;html=1;fontSize=18;" parent="1" vertex="1">
          <mxGeometry x="1380" y="550" width="230" height="90" as="geometry" />
        </mxCell>
        <mxCell id="HxmhVXZMZb9d3OeHC13k-31" style="edgeStyle=orthogonalEdgeStyle;rounded=0;sketch=0;jumpSize=6;orthogonalLoop=1;jettySize=auto;html=1;exitX=0.25;exitY=0;exitDx=0;exitDy=0;entryX=0.086;entryY=1.003;entryDx=0;entryDy=0;entryPerimeter=0;fontSize=18;" parent="1" source="HxmhVXZMZb9d3OeHC13k-24" target="HxmhVXZMZb9d3OeHC13k-15" edge="1">
          <mxGeometry relative="1" as="geometry" />
        </mxCell>
        <mxCell id="HxmhVXZMZb9d3OeHC13k-24" value="执行引擎" style="rounded=0;whiteSpace=wrap;html=1;fontSize=18;" parent="1" vertex="1">
          <mxGeometry x="920" y="550" width="240" height="90" as="geometry" />
        </mxCell>
        <mxCell id="HxmhVXZMZb9d3OeHC13k-37" value="本地方法库" style="shape=singleArrow;direction=west;whiteSpace=wrap;html=1;fontSize=18;" parent="1" vertex="1">
          <mxGeometry x="1654" y="555" width="140" height="80" as="geometry" />
        </mxCell>
        <mxCell id="HxmhVXZMZb9d3OeHC13k-41" style="edgeStyle=orthogonalEdgeStyle;rounded=0;sketch=0;jumpSize=6;orthogonalLoop=1;jettySize=auto;html=1;exitX=0.25;exitY=1;exitDx=0;exitDy=0;entryX=0.649;entryY=0.013;entryDx=0;entryDy=0;entryPerimeter=0;fontSize=18;" parent="1" source="HxmhVXZMZb9d3OeHC13k-38" target="HxmhVXZMZb9d3OeHC13k-15" edge="1">
          <mxGeometry relative="1" as="geometry" />
        </mxCell>
        <mxCell id="HxmhVXZMZb9d3OeHC13k-38" value="类装载器&lt;br&gt;Class Loader" style="rounded=0;whiteSpace=wrap;html=1;fontSize=18;" parent="1" vertex="1">
          <mxGeometry x="1330" y="-37.5" width="150" height="95" as="geometry" />
        </mxCell>
        <mxCell id="qv8OclqeBMi0ClYqG2Sq-1" value="" style="rounded=0;whiteSpace=wrap;html=1;" vertex="1" parent="1">
          <mxGeometry x="256.25" y="585" width="227.5" height="440" as="geometry" />
        </mxCell>
        <mxCell id="qv8OclqeBMi0ClYqG2Sq-6" value="&lt;font style=&quot;font-size: 18px;&quot;&gt;Eden Space&lt;/font&gt;" style="rounded=0;whiteSpace=wrap;html=1;" vertex="1" parent="1">
          <mxGeometry x="285" y="660" width="165" height="60" as="geometry" />
        </mxCell>
        <mxCell id="qv8OclqeBMi0ClYqG2Sq-7" value="&lt;font style=&quot;font-size: 18px;&quot;&gt;Survivor Space I&lt;/font&gt;" style="rounded=0;whiteSpace=wrap;html=1;" vertex="1" parent="1">
          <mxGeometry x="285" y="750" width="165" height="60" as="geometry" />
        </mxCell>
        <mxCell id="qv8OclqeBMi0ClYqG2Sq-8" value="&lt;font style=&quot;font-size: 18px;&quot;&gt;Survivor Space 2&lt;/font&gt;" style="rounded=0;whiteSpace=wrap;html=1;" vertex="1" parent="1">
          <mxGeometry x="285" y="840" width="165" height="60" as="geometry" />
        </mxCell>
        <mxCell id="qv8OclqeBMi0ClYqG2Sq-9" value="" style="shape=curlyBracket;whiteSpace=wrap;html=1;rounded=1;fontSize=18;fillColor=#A680B8;" vertex="1" parent="1">
          <mxGeometry x="190" y="690" width="90" height="185" as="geometry" />
        </mxCell>
        <mxCell id="qv8OclqeBMi0ClYqG2Sq-13" value="新生代&lt;br&gt;（&lt;span style=&quot;color: rgb(36, 41, 47); font-family: -apple-system, &amp;quot;system-ui&amp;quot;, &amp;quot;Segoe UI&amp;quot;, Helvetica, Arial, sans-serif, &amp;quot;Apple Color Emoji&amp;quot;, &amp;quot;Segoe UI Emoji&amp;quot;; font-size: 16px; text-align: left; background-color: rgb(255, 255, 255);&quot;&gt;Young Generation&lt;/span&gt;）" style="text;html=1;strokeColor=none;fillColor=none;align=center;verticalAlign=middle;whiteSpace=wrap;rounded=0;fontSize=18;" vertex="1" parent="1">
          <mxGeometry y="775.75" width="200" height="13.5" as="geometry" />
        </mxCell>
        <mxCell id="qv8OclqeBMi0ClYqG2Sq-14" value="老年代&lt;br&gt;（old Generation）" style="rounded=0;whiteSpace=wrap;html=1;fontSize=18;" vertex="1" parent="1">
          <mxGeometry x="285" y="930" width="165" height="60" as="geometry" />
        </mxCell>
        <mxCell id="qv8OclqeBMi0ClYqG2Sq-15" value="" style="rounded=0;whiteSpace=wrap;html=1;fontSize=18;" vertex="1" parent="1">
          <mxGeometry x="260" y="1070" width="120" height="60" as="geometry" />
        </mxCell>
        <mxCell id="qv8OclqeBMi0ClYqG2Sq-17" value="" style="edgeStyle=orthogonalEdgeStyle;rounded=0;orthogonalLoop=1;jettySize=auto;html=1;fontSize=18;" edge="1" parent="1" source="qv8OclqeBMi0ClYqG2Sq-16" target="qv8OclqeBMi0ClYqG2Sq-6">
          <mxGeometry relative="1" as="geometry" />
        </mxCell>
        <mxCell id="qv8OclqeBMi0ClYqG2Sq-16" value="堆" style="text;html=1;strokeColor=none;fillColor=none;align=center;verticalAlign=middle;whiteSpace=wrap;rounded=0;fontSize=18;" vertex="1" parent="1">
          <mxGeometry x="337.5" y="610" width="62.5" height="30" as="geometry" />
        </mxCell>
      </root>
    </mxGraphModel>
  </diagram>
</mxfile>
